<svg xmlns="http://www.w3.org/2000/svg" width="753" height="528" fill="none"><g clip-path="url(#a)"><mask id="b" width="753" height="528" x="0" y="0" maskUnits="userSpaceOnUse" style="mask-type:luminance"><path fill="#fff" d="M753 0H0v527.599h753V0Z"/></mask><g mask="url(#b)" opacity=".5"><g filter="url(#c)"><g filter="url(#d)" opacity=".8"><path fill="url(#e)" d="m562.839 180.699 7.123 11.554-205.088 120.993-141.733 78.982 134.61-90.535 205.088-120.994Z"/></g><g filter="url(#f)" opacity=".8"><path fill="url(#g)" d="m542.534 133.65 7.123 11.554L344.57 266.198l-141.734 78.981 134.611-90.535L542.534 133.65Z"/></g><g filter="url(#h)" opacity=".8" style="mix-blend-mode:soft-light"><path fill="url(#i)" d="m615.503 185.609 7.123 11.554-205.088 120.994-141.733 78.981 134.61-90.535 205.088-120.994Z"/></g><g filter="url(#j)" style="mix-blend-mode:overlay"><path fill="url(#k)" d="m536.121 170.09 7.123 11.553-205.088 120.994-141.734 78.981 134.611-90.535L536.121 170.09Z"/></g><g filter="url(#l)" opacity=".8"><path fill="url(#m)" d="m562.839 180.699 7.123 11.554-205.088 120.993-141.733 78.982 134.61-90.535 205.088-120.994Z"/></g><g filter="url(#n)" opacity=".8"><path fill="url(#o)" d="m542.534 133.65 7.123 11.554L344.57 266.198l-141.734 78.981 134.611-90.535L542.534 133.65Z"/></g><g filter="url(#p)" opacity=".8" style="mix-blend-mode:soft-light"><path fill="url(#q)" d="m615.503 185.609 7.123 11.554-205.088 120.994-141.733 78.981 134.61-90.535 205.088-120.994Z"/></g><g filter="url(#r)" style="mix-blend-mode:overlay"><path fill="url(#s)" d="m536.121 170.09 7.123 11.553-205.088 120.994-141.734 78.981 134.611-90.535L536.121 170.09Z"/></g><g filter="url(#t)" opacity=".8"><path fill="url(#u)" d="m562.839 180.699 7.123 11.554-205.088 120.993-141.733 78.982 134.61-90.535 205.088-120.994Z"/></g><g filter="url(#v)" opacity=".8"><path fill="url(#w)" d="m542.534 133.65 7.123 11.554L344.57 266.198l-141.734 78.981 134.611-90.535L542.534 133.65Z"/></g><g filter="url(#x)" opacity=".8" style="mix-blend-mode:soft-light"><path fill="url(#y)" d="m615.503 185.609 7.123 11.554-205.088 120.994-141.733 78.981 134.61-90.535 205.088-120.994Z"/></g><g filter="url(#z)" style="mix-blend-mode:overlay"><path fill="url(#A)" d="m536.121 170.09 7.123 11.553-205.088 120.994-141.734 78.981 134.611-90.535L536.121 170.09Z"/></g><g filter="url(#B)" opacity=".8"><path fill="url(#C)" d="m562.84 180.699 7.123 11.554-205.088 120.993-141.734 78.982 134.611-90.535L562.84 180.699Z"/></g><g filter="url(#D)" opacity=".8"><path fill="url(#E)" d="m535.003 136.008 7.123 11.553-205.087 120.994-141.734 78.981 134.611-90.535 205.087-120.993Z"/></g><g filter="url(#F)" opacity=".8" style="mix-blend-mode:soft-light"><path fill="url(#G)" d="m615.503 185.609 7.123 11.554-205.087 120.994-141.734 78.981 134.611-90.535 205.087-120.994Z"/></g><g filter="url(#H)" style="mix-blend-mode:overlay"><path fill="url(#I)" d="m574.449 181.477 7.123 11.553-205.088 120.994-141.734 78.981 134.611-90.535 205.088-120.993Z"/></g><g filter="url(#J)" style="mix-blend-mode:overlay"><path fill="url(#K)" d="m480.808 210.184 7.122 11.553-205.087 120.994-141.734 78.981 134.611-90.535 205.088-120.993Z"/></g></g><g filter="url(#L)" opacity=".8"><path fill="url(#M)" d="m549.923 188.264 8.661 13.411-249.362 140.448-172.331 91.681 163.67-105.092 249.362-140.448Z"/></g><g filter="url(#N)" opacity=".8"><path fill="url(#O)" d="m525.236 133.65 8.661 13.412L284.534 287.51l-172.331 91.68 163.671-105.092L525.236 133.65Z"/></g><g filter="url(#P)" opacity=".8" style="mix-blend-mode:soft-light"><path fill="url(#Q)" d="m613.955 193.963 8.661 13.411-249.363 140.448-172.331 91.681 163.671-105.092 249.362-140.448Z"/></g><g filter="url(#R)" style="mix-blend-mode:overlay"><path fill="url(#S)" d="m517.439 175.947 8.661 13.411-249.363 140.448-172.331 91.681 163.671-105.092 249.362-140.448Z"/></g><g filter="url(#T)" opacity=".8"><path fill="url(#U)" d="m545.168 192.029 9.228 14.336-265.689 150.132-183.613 98.001L279.48 342.161l265.688-150.132Z"/></g><g filter="url(#V)" opacity=".8"><path fill="url(#W)" d="m518.863 133.65 9.228 14.336-265.688 150.132-183.614 98.001 174.386-112.337L518.863 133.65Z"/></g><g filter="url(#X)" opacity=".8" style="mix-blend-mode:soft-light"><path fill="url(#Y)" d="m613.394 198.121 9.228 14.336-265.689 150.131L173.32 460.59l174.386-112.337 265.688-150.132Z"/></g><g filter="url(#Z)" style="mix-blend-mode:overlay"><path fill="url(#aa)" d="m510.558 178.863 9.228 14.336L254.098 343.33 70.484 441.332 244.87 328.995l265.688-150.132Z"/></g><g filter="url(#ab)" opacity=".8"><path fill="url(#ac)" d="m546.331 188.262 9.089 13.411-261.697 140.448-180.856 91.681L284.634 328.71l261.697-140.448Z"/></g><g filter="url(#ad)" opacity=".8"><path fill="url(#ae)" d="m520.417 133.648 9.089 13.412-261.697 140.448-180.856 91.68L258.72 274.096l261.697-140.448Z"/></g><g filter="url(#af)" opacity=".8" style="mix-blend-mode:soft-light"><path fill="url(#ag)" d="m613.526 193.963 9.089 13.411-261.697 140.448-180.856 91.681 171.767-105.092 261.697-140.448Z"/></g><g filter="url(#ah)" style="mix-blend-mode:overlay"><path fill="url(#ai)" d="m512.237 175.947 9.089 13.411-261.697 140.448-180.856 91.681L250.54 316.395l261.697-140.448Z"/></g><g filter="url(#aj)" opacity=".8"><path fill="url(#ak)" d="m562.831 180.697 7.123 11.554-205.087 120.993-141.734 78.982 134.611-90.535 205.087-120.994Z"/></g><g filter="url(#al)" opacity=".8"><path fill="url(#am)" d="m534.791 168.271 8.793 13.842-253.169 144.95-174.962 94.62 166.169-108.461 253.169-144.951Z"/></g><g filter="url(#an)" opacity=".8"><path fill="url(#ao)" d="m514.455 136.006 8.793 13.841-253.169 144.95-174.962 94.62 166.169-108.461 253.169-144.95Z"/></g><g filter="url(#ap)" opacity=".8" style="mix-blend-mode:soft-light"><path fill="url(#aq)" d="m613.829 195.428 8.793 13.841-253.169 144.95-174.961 94.62L360.66 340.378l253.169-144.95Z"/></g><g filter="url(#ar)" style="mix-blend-mode:overlay"><path fill="url(#as)" d="m563.151 190.479 8.793 13.842-253.169 144.95-174.963 94.62L309.981 335.43l253.17-144.951Z"/></g><g filter="url(#at)" style="mix-blend-mode:overlay"><path fill="url(#au)" d="m447.557 224.869 8.793 13.841-253.169 144.951L28.219 478.28l166.169-108.46 253.169-144.951Z"/></g></g></g><defs><filter id="c" width="640.404" height="446.949" x="61.665" y="54.206" color-interpolation-filters="sRGB" filterUnits="userSpaceOnUse"><feFlood flood-opacity="0" result="BackgroundImageFix"/><feBlend in="SourceGraphic" in2="BackgroundImageFix" result="shape"/><feGaussianBlur result="effect1_foregroundBlur_1374_7797" stdDeviation="39.722"/></filter><filter id="d" width="483.644" height="348.353" x="154.729" y="112.287" color-interpolation-filters="sRGB" filterUnits="userSpaceOnUse"><feFlood flood-opacity="0" result="BackgroundImageFix"/><feBlend in="SourceGraphic" in2="BackgroundImageFix" result="shape"/><feGaussianBlur result="effect1_foregroundBlur_1374_7797" stdDeviation="34.206"/></filter><filter id="f" width="483.644" height="348.353" x="134.424" y="65.238" color-interpolation-filters="sRGB" filterUnits="userSpaceOnUse"><feFlood flood-opacity="0" result="BackgroundImageFix"/><feBlend in="SourceGraphic" in2="BackgroundImageFix" result="shape"/><feGaussianBlur result="effect1_foregroundBlur_1374_7797" stdDeviation="34.206"/></filter><filter id="h" width="483.644" height="348.353" x="207.393" y="117.197" color-interpolation-filters="sRGB" filterUnits="userSpaceOnUse"><feFlood flood-opacity="0" result="BackgroundImageFix"/><feBlend in="SourceGraphic" in2="BackgroundImageFix" result="shape"/><feGaussianBlur result="effect1_foregroundBlur_1374_7797" stdDeviation="34.206"/></filter><filter id="j" width="424.66" height="289.367" x="157.502" y="131.17" color-interpolation-filters="sRGB" filterUnits="userSpaceOnUse"><feFlood flood-opacity="0" result="BackgroundImageFix"/><feBlend in="SourceGraphic" in2="BackgroundImageFix" result="shape"/><feGaussianBlur result="effect1_foregroundBlur_1374_7797" stdDeviation="19.46"/></filter><filter id="l" width="483.644" height="348.353" x="154.729" y="112.287" color-interpolation-filters="sRGB" filterUnits="userSpaceOnUse"><feFlood flood-opacity="0" result="BackgroundImageFix"/><feBlend in="SourceGraphic" in2="BackgroundImageFix" result="shape"/><feGaussianBlur result="effect1_foregroundBlur_1374_7797" stdDeviation="34.206"/></filter><filter id="n" width="483.644" height="348.353" x="134.424" y="65.238" color-interpolation-filters="sRGB" filterUnits="userSpaceOnUse"><feFlood flood-opacity="0" result="BackgroundImageFix"/><feBlend in="SourceGraphic" in2="BackgroundImageFix" result="shape"/><feGaussianBlur result="effect1_foregroundBlur_1374_7797" stdDeviation="34.206"/></filter><filter id="p" width="483.644" height="348.353" x="207.393" y="117.197" color-interpolation-filters="sRGB" filterUnits="userSpaceOnUse"><feFlood flood-opacity="0" result="BackgroundImageFix"/><feBlend in="SourceGraphic" in2="BackgroundImageFix" result="shape"/><feGaussianBlur result="effect1_foregroundBlur_1374_7797" stdDeviation="34.206"/></filter><filter id="r" width="424.66" height="289.367" x="157.502" y="131.17" color-interpolation-filters="sRGB" filterUnits="userSpaceOnUse"><feFlood flood-opacity="0" result="BackgroundImageFix"/><feBlend in="SourceGraphic" in2="BackgroundImageFix" result="shape"/><feGaussianBlur result="effect1_foregroundBlur_1374_7797" stdDeviation="19.46"/></filter><filter id="t" width="483.644" height="348.353" x="154.729" y="112.287" color-interpolation-filters="sRGB" filterUnits="userSpaceOnUse"><feFlood flood-opacity="0" result="BackgroundImageFix"/><feBlend in="SourceGraphic" in2="BackgroundImageFix" result="shape"/><feGaussianBlur result="effect1_foregroundBlur_1374_7797" stdDeviation="34.206"/></filter><filter id="v" width="483.644" height="348.353" x="134.424" y="65.238" color-interpolation-filters="sRGB" filterUnits="userSpaceOnUse"><feFlood flood-opacity="0" result="BackgroundImageFix"/><feBlend in="SourceGraphic" in2="BackgroundImageFix" result="shape"/><feGaussianBlur result="effect1_foregroundBlur_1374_7797" stdDeviation="34.206"/></filter><filter id="x" width="483.644" height="348.353" x="207.393" y="117.197" color-interpolation-filters="sRGB" filterUnits="userSpaceOnUse"><feFlood flood-opacity="0" result="BackgroundImageFix"/><feBlend in="SourceGraphic" in2="BackgroundImageFix" result="shape"/><feGaussianBlur result="effect1_foregroundBlur_1374_7797" stdDeviation="34.206"/></filter><filter id="z" width="424.66" height="289.367" x="157.502" y="131.17" color-interpolation-filters="sRGB" filterUnits="userSpaceOnUse"><feFlood flood-opacity="0" result="BackgroundImageFix"/><feBlend in="SourceGraphic" in2="BackgroundImageFix" result="shape"/><feGaussianBlur result="effect1_foregroundBlur_1374_7797" stdDeviation="19.46"/></filter><filter id="B" width="483.644" height="348.353" x="154.729" y="112.287" color-interpolation-filters="sRGB" filterUnits="userSpaceOnUse"><feFlood flood-opacity="0" result="BackgroundImageFix"/><feBlend in="SourceGraphic" in2="BackgroundImageFix" result="shape"/><feGaussianBlur result="effect1_foregroundBlur_1374_7797" stdDeviation="34.206"/></filter><filter id="D" width="483.644" height="348.351" x="126.893" y="67.596" color-interpolation-filters="sRGB" filterUnits="userSpaceOnUse"><feFlood flood-opacity="0" result="BackgroundImageFix"/><feBlend in="SourceGraphic" in2="BackgroundImageFix" result="shape"/><feGaussianBlur result="effect1_foregroundBlur_1374_7797" stdDeviation="34.206"/></filter><filter id="F" width="483.644" height="348.353" x="207.393" y="117.197" color-interpolation-filters="sRGB" filterUnits="userSpaceOnUse"><feFlood flood-opacity="0" result="BackgroundImageFix"/><feBlend in="SourceGraphic" in2="BackgroundImageFix" result="shape"/><feGaussianBlur result="effect1_foregroundBlur_1374_7797" stdDeviation="34.206"/></filter><filter id="H" width="424.66" height="289.367" x="195.83" y="142.557" color-interpolation-filters="sRGB" filterUnits="userSpaceOnUse"><feFlood flood-opacity="0" result="BackgroundImageFix"/><feBlend in="SourceGraphic" in2="BackgroundImageFix" result="shape"/><feGaussianBlur result="effect1_foregroundBlur_1374_7797" stdDeviation="19.46"/></filter><filter id="J" width="424.66" height="289.367" x="102.189" y="171.264" color-interpolation-filters="sRGB" filterUnits="userSpaceOnUse"><feFlood flood-opacity="0" result="BackgroundImageFix"/><feBlend in="SourceGraphic" in2="BackgroundImageFix" result="shape"/><feGaussianBlur result="effect1_foregroundBlur_1374_7797" stdDeviation="19.46"/></filter><filter id="L" width="558.519" height="382.363" x="68.479" y="119.852" color-interpolation-filters="sRGB" filterUnits="userSpaceOnUse"><feFlood flood-opacity="0" result="BackgroundImageFix"/><feBlend in="SourceGraphic" in2="BackgroundImageFix" result="shape"/><feGaussianBlur result="effect1_foregroundBlur_1374_7797" stdDeviation="34.206"/></filter><filter id="N" width="558.519" height="382.363" x="43.791" y="65.238" color-interpolation-filters="sRGB" filterUnits="userSpaceOnUse"><feFlood flood-opacity="0" result="BackgroundImageFix"/><feBlend in="SourceGraphic" in2="BackgroundImageFix" result="shape"/><feGaussianBlur result="effect1_foregroundBlur_1374_7797" stdDeviation="34.206"/></filter><filter id="P" width="558.519" height="382.363" x="132.51" y="125.551" color-interpolation-filters="sRGB" filterUnits="userSpaceOnUse"><feFlood flood-opacity="0" result="BackgroundImageFix"/><feBlend in="SourceGraphic" in2="BackgroundImageFix" result="shape"/><feGaussianBlur result="effect1_foregroundBlur_1374_7797" stdDeviation="34.206"/></filter><filter id="R" width="499.535" height="323.379" x="65.486" y="137.027" color-interpolation-filters="sRGB" filterUnits="userSpaceOnUse"><feFlood flood-opacity="0" result="BackgroundImageFix"/><feBlend in="SourceGraphic" in2="BackgroundImageFix" result="shape"/><feGaussianBlur result="effect1_foregroundBlur_1374_7797" stdDeviation="19.46"/></filter><filter id="T" width="586.129" height="399.293" x="36.682" y="123.617" color-interpolation-filters="sRGB" filterUnits="userSpaceOnUse"><feFlood flood-opacity="0" result="BackgroundImageFix"/><feBlend in="SourceGraphic" in2="BackgroundImageFix" result="shape"/><feGaussianBlur result="effect1_foregroundBlur_1374_7797" stdDeviation="34.206"/></filter><filter id="V" width="586.129" height="399.293" x="10.377" y="65.238" color-interpolation-filters="sRGB" filterUnits="userSpaceOnUse"><feFlood flood-opacity="0" result="BackgroundImageFix"/><feBlend in="SourceGraphic" in2="BackgroundImageFix" result="shape"/><feGaussianBlur result="effect1_foregroundBlur_1374_7797" stdDeviation="34.206"/></filter><filter id="X" width="586.129" height="399.293" x="104.908" y="129.709" color-interpolation-filters="sRGB" filterUnits="userSpaceOnUse"><feFlood flood-opacity="0" result="BackgroundImageFix"/><feBlend in="SourceGraphic" in2="BackgroundImageFix" result="shape"/><feGaussianBlur result="effect1_foregroundBlur_1374_7797" stdDeviation="34.206"/></filter><filter id="Z" width="527.145" height="340.309" x="31.564" y="139.943" color-interpolation-filters="sRGB" filterUnits="userSpaceOnUse"><feFlood flood-opacity="0" result="BackgroundImageFix"/><feBlend in="SourceGraphic" in2="BackgroundImageFix" result="shape"/><feGaussianBlur result="effect1_foregroundBlur_1374_7797" stdDeviation="19.46"/></filter><filter id="ab" width="579.379" height="382.363" x="44.455" y="119.85" color-interpolation-filters="sRGB" filterUnits="userSpaceOnUse"><feFlood flood-opacity="0" result="BackgroundImageFix"/><feBlend in="SourceGraphic" in2="BackgroundImageFix" result="shape"/><feGaussianBlur result="effect1_foregroundBlur_1374_7797" stdDeviation="34.206"/></filter><filter id="ad" width="579.379" height="382.363" x="18.541" y="65.236" color-interpolation-filters="sRGB" filterUnits="userSpaceOnUse"><feFlood flood-opacity="0" result="BackgroundImageFix"/><feBlend in="SourceGraphic" in2="BackgroundImageFix" result="shape"/><feGaussianBlur result="effect1_foregroundBlur_1374_7797" stdDeviation="34.206"/></filter><filter id="af" width="579.379" height="382.363" x="111.65" y="125.551" color-interpolation-filters="sRGB" filterUnits="userSpaceOnUse"><feFlood flood-opacity="0" result="BackgroundImageFix"/><feBlend in="SourceGraphic" in2="BackgroundImageFix" result="shape"/><feGaussianBlur result="effect1_foregroundBlur_1374_7797" stdDeviation="34.206"/></filter><filter id="ah" width="520.395" height="323.379" x="39.853" y="137.027" color-interpolation-filters="sRGB" filterUnits="userSpaceOnUse"><feFlood flood-opacity="0" result="BackgroundImageFix"/><feBlend in="SourceGraphic" in2="BackgroundImageFix" result="shape"/><feGaussianBlur result="effect1_foregroundBlur_1374_7797" stdDeviation="19.46"/></filter><filter id="aj" width="483.644" height="348.353" x="154.721" y="112.285" color-interpolation-filters="sRGB" filterUnits="userSpaceOnUse"><feFlood flood-opacity="0" result="BackgroundImageFix"/><feBlend in="SourceGraphic" in2="BackgroundImageFix" result="shape"/><feGaussianBlur result="effect1_foregroundBlur_1374_7797" stdDeviation="34.206"/></filter><filter id="al" width="564.957" height="390.236" x="47.041" y="99.859" color-interpolation-filters="sRGB" filterUnits="userSpaceOnUse"><feFlood flood-opacity="0" result="BackgroundImageFix"/><feBlend in="SourceGraphic" in2="BackgroundImageFix" result="shape"/><feGaussianBlur result="effect1_foregroundBlur_1374_7797" stdDeviation="34.206"/></filter><filter id="an" width="564.957" height="390.234" x="26.705" y="67.594" color-interpolation-filters="sRGB" filterUnits="userSpaceOnUse"><feFlood flood-opacity="0" result="BackgroundImageFix"/><feBlend in="SourceGraphic" in2="BackgroundImageFix" result="shape"/><feGaussianBlur result="effect1_foregroundBlur_1374_7797" stdDeviation="34.206"/></filter><filter id="ap" width="564.957" height="390.234" x="126.08" y="127.016" color-interpolation-filters="sRGB" filterUnits="userSpaceOnUse"><feFlood flood-opacity="0" result="BackgroundImageFix"/><feBlend in="SourceGraphic" in2="BackgroundImageFix" result="shape"/><feGaussianBlur result="effect1_foregroundBlur_1374_7797" stdDeviation="34.206"/></filter><filter id="ar" width="505.973" height="331.252" x="104.893" y="151.559" color-interpolation-filters="sRGB" filterUnits="userSpaceOnUse"><feFlood flood-opacity="0" result="BackgroundImageFix"/><feBlend in="SourceGraphic" in2="BackgroundImageFix" result="shape"/><feGaussianBlur result="effect1_foregroundBlur_1374_7797" stdDeviation="19.46"/></filter><filter id="at" width="505.973" height="331.25" x="-10.701" y="185.949" color-interpolation-filters="sRGB" filterUnits="userSpaceOnUse"><feFlood flood-opacity="0" result="BackgroundImageFix"/><feBlend in="SourceGraphic" in2="BackgroundImageFix" result="shape"/><feGaussianBlur result="effect1_foregroundBlur_1374_7797" stdDeviation="19.46"/></filter><linearGradient id="e" x1="566.401" x2="363.746" y1="186.476" y2="311.417" gradientUnits="userSpaceOnUse"><stop stop-color="#fff"/><stop offset="1" stop-color="#FFF600"/></linearGradient><linearGradient id="g" x1="546.096" x2="343.442" y1="139.427" y2="264.368" gradientUnits="userSpaceOnUse"><stop stop-color="#fff"/><stop offset="1" stop-color="#FFF600"/></linearGradient><linearGradient id="i" x1="619.064" x2="416.41" y1="191.386" y2="316.327" gradientUnits="userSpaceOnUse"><stop stop-color="#fff"/><stop offset="1" stop-color="#FFF600"/></linearGradient><linearGradient id="k" x1="539.682" x2="337.028" y1="175.867" y2="300.807" gradientUnits="userSpaceOnUse"><stop stop-color="#fff"/><stop offset="1" stop-color="#fff"/></linearGradient><linearGradient id="m" x1="566.401" x2="363.746" y1="186.476" y2="311.417" gradientUnits="userSpaceOnUse"><stop stop-color="#fff"/><stop offset="1" stop-color="#FFF600"/></linearGradient><linearGradient id="o" x1="546.096" x2="343.442" y1="139.427" y2="264.368" gradientUnits="userSpaceOnUse"><stop stop-color="#fff"/><stop offset="1" stop-color="#FFF600"/></linearGradient><linearGradient id="q" x1="619.064" x2="416.41" y1="191.386" y2="316.327" gradientUnits="userSpaceOnUse"><stop stop-color="#fff"/><stop offset="1" stop-color="#FFF600"/></linearGradient><linearGradient id="s" x1="539.682" x2="337.028" y1="175.867" y2="300.807" gradientUnits="userSpaceOnUse"><stop stop-color="#fff"/><stop offset="1" stop-color="#fff"/></linearGradient><linearGradient id="u" x1="566.401" x2="363.746" y1="186.476" y2="311.417" gradientUnits="userSpaceOnUse"><stop stop-color="#fff"/><stop offset="1" stop-color="#FFF600"/></linearGradient><linearGradient id="w" x1="546.096" x2="343.442" y1="139.427" y2="264.368" gradientUnits="userSpaceOnUse"><stop stop-color="#fff"/><stop offset="1" stop-color="#FFF600"/></linearGradient><linearGradient id="y" x1="619.064" x2="416.41" y1="191.386" y2="316.327" gradientUnits="userSpaceOnUse"><stop stop-color="#fff"/><stop offset="1" stop-color="#FFF600"/></linearGradient><linearGradient id="A" x1="539.682" x2="337.028" y1="175.867" y2="300.807" gradientUnits="userSpaceOnUse"><stop stop-color="#fff"/><stop offset="1" stop-color="#fff"/></linearGradient><linearGradient id="C" x1="566.401" x2="363.747" y1="186.476" y2="311.417" gradientUnits="userSpaceOnUse"><stop stop-color="#fff"/><stop offset=".557" stop-color="#FD8181"/><stop offset="1" stop-color="#FD8181"/></linearGradient><linearGradient id="E" x1="538.565" x2="335.911" y1="141.785" y2="266.725" gradientUnits="userSpaceOnUse"><stop stop-color="#fff"/><stop offset="1" stop-color="#FFF600"/></linearGradient><linearGradient id="G" x1="619.065" x2="416.411" y1="191.386" y2="316.327" gradientUnits="userSpaceOnUse"><stop stop-color="#fff"/><stop offset=".557" stop-color="#FD8181"/><stop offset="1" stop-color="#FD8181"/></linearGradient><linearGradient id="I" x1="578.01" x2="375.356" y1="187.253" y2="312.194" gradientUnits="userSpaceOnUse"><stop stop-color="#fff"/><stop offset="1" stop-color="#fff"/></linearGradient><linearGradient id="K" x1="484.369" x2="281.715" y1="215.96" y2="340.901" gradientUnits="userSpaceOnUse"><stop stop-color="#fff"/><stop offset="1" stop-color="#fff"/></linearGradient><linearGradient id="M" x1="554.254" x2="314.273" y1="194.969" y2="349.945" gradientUnits="userSpaceOnUse"><stop stop-color="#fff"/><stop offset="1" stop-color="#FFF600"/></linearGradient><linearGradient id="O" x1="529.566" x2="289.586" y1="140.356" y2="295.331" gradientUnits="userSpaceOnUse"><stop stop-color="#fff"/><stop offset="1" stop-color="#FFF600"/></linearGradient><linearGradient id="Q" x1="618.285" x2="378.305" y1="200.668" y2="355.644" gradientUnits="userSpaceOnUse"><stop stop-color="#fff"/><stop offset="1" stop-color="#FFF600"/></linearGradient><linearGradient id="S" x1="521.769" x2="281.789" y1="182.653" y2="337.628" gradientUnits="userSpaceOnUse"><stop stop-color="#fff"/><stop offset="1" stop-color="#fff"/></linearGradient><linearGradient id="U" x1="549.782" x2="293.6" y1="199.197" y2="364.097" gradientUnits="userSpaceOnUse"><stop stop-color="#fff"/><stop offset="1" stop-color="#FFF600"/></linearGradient><linearGradient id="W" x1="523.477" x2="267.295" y1="140.818" y2="305.718" gradientUnits="userSpaceOnUse"><stop stop-color="#fff"/><stop offset="1" stop-color="#FFF600"/></linearGradient><linearGradient id="Y" x1="618.008" x2="361.826" y1="205.289" y2="370.189" gradientUnits="userSpaceOnUse"><stop stop-color="#fff"/><stop offset="1" stop-color="#FFF600"/></linearGradient><linearGradient id="aa" x1="515.172" x2="258.99" y1="186.031" y2="350.931" gradientUnits="userSpaceOnUse"><stop stop-color="#fff"/><stop offset="1" stop-color="#fff"/></linearGradient><linearGradient id="ac" x1="550.876" x2="306.321" y1="194.967" y2="360.709" gradientUnits="userSpaceOnUse"><stop stop-color="#fff"/><stop offset="1" stop-color="#FFF600"/></linearGradient><linearGradient id="ae" x1="524.962" x2="280.406" y1="140.354" y2="306.096" gradientUnits="userSpaceOnUse"><stop stop-color="#fff"/><stop offset="1" stop-color="#FFF600"/></linearGradient><linearGradient id="ag" x1="618.07" x2="373.515" y1="200.668" y2="366.41" gradientUnits="userSpaceOnUse"><stop stop-color="#fff"/><stop offset="1" stop-color="#FFF600"/></linearGradient><linearGradient id="ai" x1="516.782" x2="272.227" y1="182.653" y2="348.394" gradientUnits="userSpaceOnUse"><stop stop-color="#fff"/><stop offset="1" stop-color="#fff"/></linearGradient><linearGradient id="ak" x1="566.393" x2="363.739" y1="186.474" y2="311.415" gradientUnits="userSpaceOnUse"><stop stop-color="#fff"/><stop offset=".557" stop-color="#FD8181"/><stop offset="1" stop-color="#FD8181"/></linearGradient><linearGradient id="am" x1="539.187" x2="293.207" y1="175.192" y2="331.458" gradientUnits="userSpaceOnUse"><stop stop-color="#fff"/><stop offset=".557" stop-color="#FD8181"/><stop offset="1" stop-color="#FD8181"/></linearGradient><linearGradient id="ao" x1="518.851" x2="272.871" y1="142.926" y2="299.192" gradientUnits="userSpaceOnUse"><stop stop-color="#fff"/><stop offset="1" stop-color="#FFF600"/></linearGradient><linearGradient id="aq" x1="618.226" x2="372.245" y1="202.348" y2="358.614" gradientUnits="userSpaceOnUse"><stop stop-color="#fff"/><stop offset=".557" stop-color="#FD8181"/><stop offset="1" stop-color="#FD8181"/></linearGradient><linearGradient id="as" x1="567.547" x2="321.566" y1="197.399" y2="353.666" gradientUnits="userSpaceOnUse"><stop stop-color="#fff"/><stop offset="1" stop-color="#fff"/></linearGradient><linearGradient id="au" x1="451.953" x2="205.973" y1="231.79" y2="388.055" gradientUnits="userSpaceOnUse"><stop stop-color="#fff"/><stop offset="1" stop-color="#fff"/></linearGradient><clipPath id="a"><path fill="#fff" d="M0 0h753v528H0z"/></clipPath></defs></svg>