<svg xmlns="http://www.w3.org/2000/svg" width="753" height="527" fill="none"><g clip-path="url(#a)"><mask id="b" width="753" height="527" x="0" y="0" maskUnits="userSpaceOnUse" style="mask-type:luminance"><path fill="#fff" d="M0 0h753v527H0V0Z"/></mask><g mask="url(#b)" opacity=".5"><g filter="url(#c)"><g filter="url(#d)" opacity=".8"><path fill="url(#e)" d="m190.17 180.699-7.123 11.554 205.088 120.993 141.733 78.982-134.61-90.535L190.17 180.699Z"/></g><g filter="url(#f)" opacity=".8"><path fill="url(#g)" d="m210.475 133.65-7.123 11.554L408.44 266.198l141.733 78.981-134.611-90.535L210.475 133.65Z"/></g><g filter="url(#h)" opacity=".8" style="mix-blend-mode:soft-light"><path fill="url(#i)" d="m137.506 185.609-7.123 11.554 205.088 120.994 141.733 78.981-134.61-90.535-205.088-120.994Z"/></g><g filter="url(#j)" style="mix-blend-mode:overlay"><path fill="url(#k)" d="m216.889 170.09-7.123 11.553 205.087 120.994 141.734 78.981-134.611-90.535L216.889 170.09Z"/></g><g filter="url(#l)" opacity=".8"><path fill="url(#m)" d="m190.17 180.699-7.123 11.554 205.088 120.993 141.733 78.982-134.61-90.535L190.17 180.699Z"/></g><g filter="url(#n)" opacity=".8"><path fill="url(#o)" d="m210.475 133.65-7.123 11.554L408.44 266.198l141.733 78.981-134.611-90.535L210.475 133.65Z"/></g><g filter="url(#p)" opacity=".8" style="mix-blend-mode:soft-light"><path fill="url(#q)" d="m137.506 185.609-7.123 11.554 205.088 120.994 141.733 78.981-134.61-90.535-205.088-120.994Z"/></g><g filter="url(#r)" style="mix-blend-mode:overlay"><path fill="url(#s)" d="m216.889 170.09-7.123 11.553 205.087 120.994 141.734 78.981-134.611-90.535L216.889 170.09Z"/></g><g filter="url(#t)" opacity=".8"><path fill="url(#u)" d="m190.17 180.699-7.123 11.554 205.088 120.993 141.733 78.982-134.61-90.535L190.17 180.699Z"/></g><g filter="url(#v)" opacity=".8"><path fill="url(#w)" d="m210.475 133.65-7.123 11.554L408.44 266.198l141.733 78.981-134.611-90.535L210.475 133.65Z"/></g><g filter="url(#x)" opacity=".8" style="mix-blend-mode:soft-light"><path fill="url(#y)" d="m137.506 185.609-7.123 11.554 205.088 120.994 141.733 78.981-134.61-90.535-205.088-120.994Z"/></g><g filter="url(#z)" style="mix-blend-mode:overlay"><path fill="url(#A)" d="m216.889 170.09-7.123 11.553 205.087 120.994 141.734 78.981-134.611-90.535L216.889 170.09Z"/></g><g filter="url(#B)" opacity=".8"><path fill="url(#C)" d="m190.17 180.699-7.123 11.554 205.088 120.993 141.734 78.982-134.611-90.535L190.17 180.699Z"/></g><g filter="url(#D)" opacity=".8"><path fill="url(#E)" d="m218.006 136.008-7.123 11.553L415.97 268.555l141.734 78.981-134.611-90.535-205.087-120.993Z"/></g><g filter="url(#F)" opacity=".8" style="mix-blend-mode:soft-light"><path fill="url(#G)" d="m137.506 185.609-7.123 11.554L335.47 318.157l141.734 78.981-134.611-90.535-205.087-120.994Z"/></g><g filter="url(#H)" style="mix-blend-mode:overlay"><path fill="url(#I)" d="m178.553 181.477-7.123 11.553 205.088 120.994 141.733 78.981-134.61-90.535-205.088-120.993Z"/></g><g filter="url(#J)" style="mix-blend-mode:overlay"><path fill="url(#K)" d="m272.2 210.184-7.122 11.553 205.087 120.994 141.734 78.981-134.611-90.535L272.2 210.184Z"/></g></g><g filter="url(#L)" opacity=".8"><path fill="url(#M)" d="m203.075 188.264-8.661 13.411 249.362 140.448 172.331 91.681-163.67-105.092-249.362-140.448Z"/></g><g filter="url(#N)" opacity=".8"><path fill="url(#O)" d="m227.763 133.65-8.661 13.412L468.465 287.51l172.331 91.68-163.671-105.092L227.763 133.65Z"/></g><g filter="url(#P)" opacity=".8" style="mix-blend-mode:soft-light"><path fill="url(#Q)" d="m139.044 193.963-8.661 13.411 249.363 140.448 172.331 91.681-163.671-105.092-249.362-140.448Z"/></g><g filter="url(#R)" style="mix-blend-mode:overlay"><path fill="url(#S)" d="m235.559 175.947-8.661 13.411 249.363 140.448 172.331 91.681-163.671-105.092-249.362-140.448Z"/></g><g filter="url(#T)" opacity=".8"><path fill="url(#U)" d="m207.837 192.029-9.228 14.336 265.689 150.132 183.613 98.001-174.386-112.337-265.688-150.132Z"/></g><g filter="url(#V)" opacity=".8"><path fill="url(#W)" d="m234.142 133.65-9.228 14.336 265.688 150.132 183.614 98.001L499.83 283.782 234.142 133.65Z"/></g><g filter="url(#X)" opacity=".8" style="mix-blend-mode:soft-light"><path fill="url(#Y)" d="m139.611 198.121-9.228 14.336 265.689 150.131 183.613 98.002-174.386-112.337-265.688-150.132Z"/></g><g filter="url(#Z)" style="mix-blend-mode:overlay"><path fill="url(#aa)" d="m242.447 178.863-9.228 14.336L498.907 343.33l183.614 98.002-174.386-112.337-265.688-150.132Z"/></g><g filter="url(#ab)" opacity=".8"><path fill="url(#ac)" d="m206.668 188.262-9.09 13.411 261.698 140.448 180.856 91.681L468.365 328.71 206.668 188.262Z"/></g><g filter="url(#ad)" opacity=".8"><path fill="url(#ae)" d="m232.581 133.648-9.089 13.412 261.697 140.448 180.856 91.68-171.767-105.092-261.697-140.448Z"/></g><g filter="url(#af)" opacity=".8" style="mix-blend-mode:soft-light"><path fill="url(#ag)" d="m139.472 193.963-9.089 13.411 261.698 140.448 180.855 91.681L401.17 334.411 139.472 193.963Z"/></g><g filter="url(#ah)" style="mix-blend-mode:overlay"><path fill="url(#ai)" d="m240.762 175.947-9.09 13.411L493.37 329.806l180.856 91.681-171.767-105.092-261.697-140.448Z"/></g><g filter="url(#aj)" opacity=".8"><path fill="url(#ak)" d="m190.17 180.697-7.123 11.554 205.087 120.993 141.734 78.982-134.611-90.535L190.17 180.697Z"/></g><g filter="url(#al)" opacity=".8"><path fill="url(#am)" d="m218.215 168.271-8.793 13.842 253.169 144.95 174.962 94.62-166.169-108.461-253.169-144.951Z"/></g><g filter="url(#an)" opacity=".8"><path fill="url(#ao)" d="m238.551 136.006-8.793 13.841 253.169 144.95 174.962 94.62L491.72 280.956l-253.169-144.95Z"/></g><g filter="url(#ap)" opacity=".8" style="mix-blend-mode:soft-light"><path fill="url(#aq)" d="m139.175 195.428-8.792 13.841 253.169 144.95 174.961 94.62-166.169-108.461-253.169-144.95Z"/></g><g filter="url(#ar)" style="mix-blend-mode:overlay"><path fill="url(#as)" d="m189.848 190.479-8.793 13.842 253.169 144.95 174.962 94.62L443.017 335.43 189.848 190.479Z"/></g><g filter="url(#at)" style="mix-blend-mode:overlay"><path fill="url(#au)" d="m305.441 224.869-8.793 13.841 253.169 144.951 174.962 94.619L558.61 369.82 305.441 224.869Z"/></g></g></g><defs><filter id="c" width="640.404" height="446.949" x="50.939" y="54.206" color-interpolation-filters="sRGB" filterUnits="userSpaceOnUse"><feFlood flood-opacity="0" result="BackgroundImageFix"/><feBlend in="SourceGraphic" in2="BackgroundImageFix" result="shape"/><feGaussianBlur result="effect1_foregroundBlur_1374_7949" stdDeviation="39.722"/></filter><filter id="d" width="483.644" height="348.353" x="114.635" y="112.287" color-interpolation-filters="sRGB" filterUnits="userSpaceOnUse"><feFlood flood-opacity="0" result="BackgroundImageFix"/><feBlend in="SourceGraphic" in2="BackgroundImageFix" result="shape"/><feGaussianBlur result="effect1_foregroundBlur_1374_7949" stdDeviation="34.206"/></filter><filter id="f" width="483.644" height="348.353" x="134.94" y="65.238" color-interpolation-filters="sRGB" filterUnits="userSpaceOnUse"><feFlood flood-opacity="0" result="BackgroundImageFix"/><feBlend in="SourceGraphic" in2="BackgroundImageFix" result="shape"/><feGaussianBlur result="effect1_foregroundBlur_1374_7949" stdDeviation="34.206"/></filter><filter id="h" width="483.644" height="348.353" x="61.971" y="117.197" color-interpolation-filters="sRGB" filterUnits="userSpaceOnUse"><feFlood flood-opacity="0" result="BackgroundImageFix"/><feBlend in="SourceGraphic" in2="BackgroundImageFix" result="shape"/><feGaussianBlur result="effect1_foregroundBlur_1374_7949" stdDeviation="34.206"/></filter><filter id="j" width="424.66" height="289.367" x="170.846" y="131.17" color-interpolation-filters="sRGB" filterUnits="userSpaceOnUse"><feFlood flood-opacity="0" result="BackgroundImageFix"/><feBlend in="SourceGraphic" in2="BackgroundImageFix" result="shape"/><feGaussianBlur result="effect1_foregroundBlur_1374_7949" stdDeviation="19.46"/></filter><filter id="l" width="483.644" height="348.353" x="114.635" y="112.287" color-interpolation-filters="sRGB" filterUnits="userSpaceOnUse"><feFlood flood-opacity="0" result="BackgroundImageFix"/><feBlend in="SourceGraphic" in2="BackgroundImageFix" result="shape"/><feGaussianBlur result="effect1_foregroundBlur_1374_7949" stdDeviation="34.206"/></filter><filter id="n" width="483.644" height="348.353" x="134.94" y="65.238" color-interpolation-filters="sRGB" filterUnits="userSpaceOnUse"><feFlood flood-opacity="0" result="BackgroundImageFix"/><feBlend in="SourceGraphic" in2="BackgroundImageFix" result="shape"/><feGaussianBlur result="effect1_foregroundBlur_1374_7949" stdDeviation="34.206"/></filter><filter id="p" width="483.644" height="348.353" x="61.971" y="117.197" color-interpolation-filters="sRGB" filterUnits="userSpaceOnUse"><feFlood flood-opacity="0" result="BackgroundImageFix"/><feBlend in="SourceGraphic" in2="BackgroundImageFix" result="shape"/><feGaussianBlur result="effect1_foregroundBlur_1374_7949" stdDeviation="34.206"/></filter><filter id="r" width="424.66" height="289.367" x="170.846" y="131.17" color-interpolation-filters="sRGB" filterUnits="userSpaceOnUse"><feFlood flood-opacity="0" result="BackgroundImageFix"/><feBlend in="SourceGraphic" in2="BackgroundImageFix" result="shape"/><feGaussianBlur result="effect1_foregroundBlur_1374_7949" stdDeviation="19.46"/></filter><filter id="t" width="483.644" height="348.353" x="114.635" y="112.287" color-interpolation-filters="sRGB" filterUnits="userSpaceOnUse"><feFlood flood-opacity="0" result="BackgroundImageFix"/><feBlend in="SourceGraphic" in2="BackgroundImageFix" result="shape"/><feGaussianBlur result="effect1_foregroundBlur_1374_7949" stdDeviation="34.206"/></filter><filter id="v" width="483.644" height="348.353" x="134.94" y="65.238" color-interpolation-filters="sRGB" filterUnits="userSpaceOnUse"><feFlood flood-opacity="0" result="BackgroundImageFix"/><feBlend in="SourceGraphic" in2="BackgroundImageFix" result="shape"/><feGaussianBlur result="effect1_foregroundBlur_1374_7949" stdDeviation="34.206"/></filter><filter id="x" width="483.644" height="348.353" x="61.971" y="117.197" color-interpolation-filters="sRGB" filterUnits="userSpaceOnUse"><feFlood flood-opacity="0" result="BackgroundImageFix"/><feBlend in="SourceGraphic" in2="BackgroundImageFix" result="shape"/><feGaussianBlur result="effect1_foregroundBlur_1374_7949" stdDeviation="34.206"/></filter><filter id="z" width="424.66" height="289.367" x="170.846" y="131.17" color-interpolation-filters="sRGB" filterUnits="userSpaceOnUse"><feFlood flood-opacity="0" result="BackgroundImageFix"/><feBlend in="SourceGraphic" in2="BackgroundImageFix" result="shape"/><feGaussianBlur result="effect1_foregroundBlur_1374_7949" stdDeviation="19.46"/></filter><filter id="B" width="483.644" height="348.353" x="114.635" y="112.287" color-interpolation-filters="sRGB" filterUnits="userSpaceOnUse"><feFlood flood-opacity="0" result="BackgroundImageFix"/><feBlend in="SourceGraphic" in2="BackgroundImageFix" result="shape"/><feGaussianBlur result="effect1_foregroundBlur_1374_7949" stdDeviation="34.206"/></filter><filter id="D" width="483.644" height="348.351" x="142.471" y="67.596" color-interpolation-filters="sRGB" filterUnits="userSpaceOnUse"><feFlood flood-opacity="0" result="BackgroundImageFix"/><feBlend in="SourceGraphic" in2="BackgroundImageFix" result="shape"/><feGaussianBlur result="effect1_foregroundBlur_1374_7949" stdDeviation="34.206"/></filter><filter id="F" width="483.644" height="348.353" x="61.971" y="117.197" color-interpolation-filters="sRGB" filterUnits="userSpaceOnUse"><feFlood flood-opacity="0" result="BackgroundImageFix"/><feBlend in="SourceGraphic" in2="BackgroundImageFix" result="shape"/><feGaussianBlur result="effect1_foregroundBlur_1374_7949" stdDeviation="34.206"/></filter><filter id="H" width="424.66" height="289.367" x="132.51" y="142.557" color-interpolation-filters="sRGB" filterUnits="userSpaceOnUse"><feFlood flood-opacity="0" result="BackgroundImageFix"/><feBlend in="SourceGraphic" in2="BackgroundImageFix" result="shape"/><feGaussianBlur result="effect1_foregroundBlur_1374_7949" stdDeviation="19.46"/></filter><filter id="J" width="424.66" height="289.367" x="226.158" y="171.264" color-interpolation-filters="sRGB" filterUnits="userSpaceOnUse"><feFlood flood-opacity="0" result="BackgroundImageFix"/><feBlend in="SourceGraphic" in2="BackgroundImageFix" result="shape"/><feGaussianBlur result="effect1_foregroundBlur_1374_7949" stdDeviation="19.46"/></filter><filter id="L" width="558.519" height="382.363" x="126.002" y="119.852" color-interpolation-filters="sRGB" filterUnits="userSpaceOnUse"><feFlood flood-opacity="0" result="BackgroundImageFix"/><feBlend in="SourceGraphic" in2="BackgroundImageFix" result="shape"/><feGaussianBlur result="effect1_foregroundBlur_1374_7949" stdDeviation="34.206"/></filter><filter id="N" width="558.519" height="382.363" x="150.69" y="65.238" color-interpolation-filters="sRGB" filterUnits="userSpaceOnUse"><feFlood flood-opacity="0" result="BackgroundImageFix"/><feBlend in="SourceGraphic" in2="BackgroundImageFix" result="shape"/><feGaussianBlur result="effect1_foregroundBlur_1374_7949" stdDeviation="34.206"/></filter><filter id="P" width="558.519" height="382.363" x="61.971" y="125.551" color-interpolation-filters="sRGB" filterUnits="userSpaceOnUse"><feFlood flood-opacity="0" result="BackgroundImageFix"/><feBlend in="SourceGraphic" in2="BackgroundImageFix" result="shape"/><feGaussianBlur result="effect1_foregroundBlur_1374_7949" stdDeviation="34.206"/></filter><filter id="R" width="499.535" height="323.379" x="187.978" y="137.027" color-interpolation-filters="sRGB" filterUnits="userSpaceOnUse"><feFlood flood-opacity="0" result="BackgroundImageFix"/><feBlend in="SourceGraphic" in2="BackgroundImageFix" result="shape"/><feGaussianBlur result="effect1_foregroundBlur_1374_7949" stdDeviation="19.46"/></filter><filter id="T" width="586.129" height="399.293" x="130.197" y="123.617" color-interpolation-filters="sRGB" filterUnits="userSpaceOnUse"><feFlood flood-opacity="0" result="BackgroundImageFix"/><feBlend in="SourceGraphic" in2="BackgroundImageFix" result="shape"/><feGaussianBlur result="effect1_foregroundBlur_1374_7949" stdDeviation="34.206"/></filter><filter id="V" width="586.129" height="399.293" x="156.502" y="65.238" color-interpolation-filters="sRGB" filterUnits="userSpaceOnUse"><feFlood flood-opacity="0" result="BackgroundImageFix"/><feBlend in="SourceGraphic" in2="BackgroundImageFix" result="shape"/><feGaussianBlur result="effect1_foregroundBlur_1374_7949" stdDeviation="34.206"/></filter><filter id="X" width="586.129" height="399.293" x="61.971" y="129.709" color-interpolation-filters="sRGB" filterUnits="userSpaceOnUse"><feFlood flood-opacity="0" result="BackgroundImageFix"/><feBlend in="SourceGraphic" in2="BackgroundImageFix" result="shape"/><feGaussianBlur result="effect1_foregroundBlur_1374_7949" stdDeviation="34.206"/></filter><filter id="Z" width="527.145" height="340.309" x="194.299" y="139.943" color-interpolation-filters="sRGB" filterUnits="userSpaceOnUse"><feFlood flood-opacity="0" result="BackgroundImageFix"/><feBlend in="SourceGraphic" in2="BackgroundImageFix" result="shape"/><feGaussianBlur result="effect1_foregroundBlur_1374_7949" stdDeviation="19.46"/></filter><filter id="ab" width="579.379" height="382.363" x="129.166" y="119.85" color-interpolation-filters="sRGB" filterUnits="userSpaceOnUse"><feFlood flood-opacity="0" result="BackgroundImageFix"/><feBlend in="SourceGraphic" in2="BackgroundImageFix" result="shape"/><feGaussianBlur result="effect1_foregroundBlur_1374_7949" stdDeviation="34.206"/></filter><filter id="ad" width="579.379" height="382.363" x="155.08" y="65.236" color-interpolation-filters="sRGB" filterUnits="userSpaceOnUse"><feFlood flood-opacity="0" result="BackgroundImageFix"/><feBlend in="SourceGraphic" in2="BackgroundImageFix" result="shape"/><feGaussianBlur result="effect1_foregroundBlur_1374_7949" stdDeviation="34.206"/></filter><filter id="af" width="579.379" height="382.363" x="61.971" y="125.551" color-interpolation-filters="sRGB" filterUnits="userSpaceOnUse"><feFlood flood-opacity="0" result="BackgroundImageFix"/><feBlend in="SourceGraphic" in2="BackgroundImageFix" result="shape"/><feGaussianBlur result="effect1_foregroundBlur_1374_7949" stdDeviation="34.206"/></filter><filter id="ah" width="520.395" height="323.379" x="192.752" y="137.027" color-interpolation-filters="sRGB" filterUnits="userSpaceOnUse"><feFlood flood-opacity="0" result="BackgroundImageFix"/><feBlend in="SourceGraphic" in2="BackgroundImageFix" result="shape"/><feGaussianBlur result="effect1_foregroundBlur_1374_7949" stdDeviation="19.46"/></filter><filter id="aj" width="483.644" height="348.353" x="114.635" y="112.285" color-interpolation-filters="sRGB" filterUnits="userSpaceOnUse"><feFlood flood-opacity="0" result="BackgroundImageFix"/><feBlend in="SourceGraphic" in2="BackgroundImageFix" result="shape"/><feGaussianBlur result="effect1_foregroundBlur_1374_7949" stdDeviation="34.206"/></filter><filter id="al" width="564.957" height="390.236" x="141.01" y="99.859" color-interpolation-filters="sRGB" filterUnits="userSpaceOnUse"><feFlood flood-opacity="0" result="BackgroundImageFix"/><feBlend in="SourceGraphic" in2="BackgroundImageFix" result="shape"/><feGaussianBlur result="effect1_foregroundBlur_1374_7949" stdDeviation="34.206"/></filter><filter id="an" width="564.957" height="390.234" x="161.346" y="67.594" color-interpolation-filters="sRGB" filterUnits="userSpaceOnUse"><feFlood flood-opacity="0" result="BackgroundImageFix"/><feBlend in="SourceGraphic" in2="BackgroundImageFix" result="shape"/><feGaussianBlur result="effect1_foregroundBlur_1374_7949" stdDeviation="34.206"/></filter><filter id="ap" width="564.957" height="390.234" x="61.971" y="127.016" color-interpolation-filters="sRGB" filterUnits="userSpaceOnUse"><feFlood flood-opacity="0" result="BackgroundImageFix"/><feBlend in="SourceGraphic" in2="BackgroundImageFix" result="shape"/><feGaussianBlur result="effect1_foregroundBlur_1374_7949" stdDeviation="34.206"/></filter><filter id="ar" width="505.973" height="331.252" x="142.135" y="151.559" color-interpolation-filters="sRGB" filterUnits="userSpaceOnUse"><feFlood flood-opacity="0" result="BackgroundImageFix"/><feBlend in="SourceGraphic" in2="BackgroundImageFix" result="shape"/><feGaussianBlur result="effect1_foregroundBlur_1374_7949" stdDeviation="19.46"/></filter><filter id="at" width="505.973" height="331.25" x="257.728" y="185.949" color-interpolation-filters="sRGB" filterUnits="userSpaceOnUse"><feFlood flood-opacity="0" result="BackgroundImageFix"/><feBlend in="SourceGraphic" in2="BackgroundImageFix" result="shape"/><feGaussianBlur result="effect1_foregroundBlur_1374_7949" stdDeviation="19.46"/></filter><linearGradient id="e" x1="186.608" x2="389.263" y1="186.476" y2="311.417" gradientUnits="userSpaceOnUse"><stop stop-color="#fff"/><stop offset="1" stop-color="#FFF600"/></linearGradient><linearGradient id="g" x1="206.913" x2="409.568" y1="139.427" y2="264.368" gradientUnits="userSpaceOnUse"><stop stop-color="#fff"/><stop offset="1" stop-color="#FFF600"/></linearGradient><linearGradient id="i" x1="133.945" x2="336.599" y1="191.386" y2="316.327" gradientUnits="userSpaceOnUse"><stop stop-color="#fff"/><stop offset="1" stop-color="#FFF600"/></linearGradient><linearGradient id="k" x1="213.327" x2="415.981" y1="175.867" y2="300.807" gradientUnits="userSpaceOnUse"><stop stop-color="#fff"/><stop offset="1" stop-color="#fff"/></linearGradient><linearGradient id="m" x1="186.608" x2="389.263" y1="186.476" y2="311.417" gradientUnits="userSpaceOnUse"><stop stop-color="#fff"/><stop offset="1" stop-color="#FFF600"/></linearGradient><linearGradient id="o" x1="206.913" x2="409.568" y1="139.427" y2="264.368" gradientUnits="userSpaceOnUse"><stop stop-color="#fff"/><stop offset="1" stop-color="#FFF600"/></linearGradient><linearGradient id="q" x1="133.945" x2="336.599" y1="191.386" y2="316.327" gradientUnits="userSpaceOnUse"><stop stop-color="#fff"/><stop offset="1" stop-color="#FFF600"/></linearGradient><linearGradient id="s" x1="213.327" x2="415.981" y1="175.867" y2="300.807" gradientUnits="userSpaceOnUse"><stop stop-color="#fff"/><stop offset="1" stop-color="#fff"/></linearGradient><linearGradient id="u" x1="186.608" x2="389.263" y1="186.476" y2="311.417" gradientUnits="userSpaceOnUse"><stop stop-color="#fff"/><stop offset="1" stop-color="#FFF600"/></linearGradient><linearGradient id="w" x1="206.913" x2="409.568" y1="139.427" y2="264.368" gradientUnits="userSpaceOnUse"><stop stop-color="#fff"/><stop offset="1" stop-color="#FFF600"/></linearGradient><linearGradient id="y" x1="133.945" x2="336.599" y1="191.386" y2="316.327" gradientUnits="userSpaceOnUse"><stop stop-color="#fff"/><stop offset="1" stop-color="#FFF600"/></linearGradient><linearGradient id="A" x1="213.327" x2="415.981" y1="175.867" y2="300.807" gradientUnits="userSpaceOnUse"><stop stop-color="#fff"/><stop offset="1" stop-color="#fff"/></linearGradient><linearGradient id="C" x1="186.609" x2="389.263" y1="186.476" y2="311.417" gradientUnits="userSpaceOnUse"><stop stop-color="#fff"/><stop offset=".557" stop-color="#FD8181"/><stop offset="1" stop-color="#FD8181"/></linearGradient><linearGradient id="E" x1="214.444" x2="417.098" y1="141.785" y2="266.725" gradientUnits="userSpaceOnUse"><stop stop-color="#fff"/><stop offset="1" stop-color="#FFF600"/></linearGradient><linearGradient id="G" x1="133.944" x2="336.598" y1="191.386" y2="316.327" gradientUnits="userSpaceOnUse"><stop stop-color="#fff"/><stop offset=".557" stop-color="#FD8181"/><stop offset="1" stop-color="#FD8181"/></linearGradient><linearGradient id="I" x1="174.992" x2="377.646" y1="187.253" y2="312.194" gradientUnits="userSpaceOnUse"><stop stop-color="#fff"/><stop offset="1" stop-color="#fff"/></linearGradient><linearGradient id="K" x1="268.639" x2="471.293" y1="215.96" y2="340.901" gradientUnits="userSpaceOnUse"><stop stop-color="#fff"/><stop offset="1" stop-color="#fff"/></linearGradient><linearGradient id="M" x1="198.744" x2="438.725" y1="194.969" y2="349.945" gradientUnits="userSpaceOnUse"><stop stop-color="#fff"/><stop offset="1" stop-color="#FFF600"/></linearGradient><linearGradient id="O" x1="223.433" x2="463.413" y1="140.356" y2="295.331" gradientUnits="userSpaceOnUse"><stop stop-color="#fff"/><stop offset="1" stop-color="#FFF600"/></linearGradient><linearGradient id="Q" x1="134.714" x2="374.694" y1="200.668" y2="355.644" gradientUnits="userSpaceOnUse"><stop stop-color="#fff"/><stop offset="1" stop-color="#FFF600"/></linearGradient><linearGradient id="S" x1="231.229" x2="471.209" y1="182.653" y2="337.628" gradientUnits="userSpaceOnUse"><stop stop-color="#fff"/><stop offset="1" stop-color="#fff"/></linearGradient><linearGradient id="U" x1="203.223" x2="459.405" y1="199.197" y2="364.097" gradientUnits="userSpaceOnUse"><stop stop-color="#fff"/><stop offset="1" stop-color="#FFF600"/></linearGradient><linearGradient id="W" x1="229.528" x2="485.71" y1="140.818" y2="305.718" gradientUnits="userSpaceOnUse"><stop stop-color="#fff"/><stop offset="1" stop-color="#FFF600"/></linearGradient><linearGradient id="Y" x1="134.997" x2="391.179" y1="205.289" y2="370.189" gradientUnits="userSpaceOnUse"><stop stop-color="#fff"/><stop offset="1" stop-color="#FFF600"/></linearGradient><linearGradient id="aa" x1="237.833" x2="494.015" y1="186.031" y2="350.931" gradientUnits="userSpaceOnUse"><stop stop-color="#fff"/><stop offset="1" stop-color="#fff"/></linearGradient><linearGradient id="ac" x1="202.123" x2="446.678" y1="194.967" y2="360.709" gradientUnits="userSpaceOnUse"><stop stop-color="#fff"/><stop offset="1" stop-color="#FFF600"/></linearGradient><linearGradient id="ae" x1="228.036" x2="472.592" y1="140.354" y2="306.096" gradientUnits="userSpaceOnUse"><stop stop-color="#fff"/><stop offset="1" stop-color="#FFF600"/></linearGradient><linearGradient id="ag" x1="134.928" x2="379.483" y1="200.668" y2="366.41" gradientUnits="userSpaceOnUse"><stop stop-color="#fff"/><stop offset="1" stop-color="#FFF600"/></linearGradient><linearGradient id="ai" x1="236.217" x2="480.772" y1="182.653" y2="348.394" gradientUnits="userSpaceOnUse"><stop stop-color="#fff"/><stop offset="1" stop-color="#fff"/></linearGradient><linearGradient id="ak" x1="186.608" x2="389.262" y1="186.474" y2="311.415" gradientUnits="userSpaceOnUse"><stop stop-color="#fff"/><stop offset=".557" stop-color="#FD8181"/><stop offset="1" stop-color="#FD8181"/></linearGradient><linearGradient id="am" x1="213.818" x2="459.799" y1="175.192" y2="331.458" gradientUnits="userSpaceOnUse"><stop stop-color="#fff"/><stop offset=".557" stop-color="#FD8181"/><stop offset="1" stop-color="#FD8181"/></linearGradient><linearGradient id="ao" x1="234.155" x2="480.135" y1="142.926" y2="299.192" gradientUnits="userSpaceOnUse"><stop stop-color="#fff"/><stop offset="1" stop-color="#FFF600"/></linearGradient><linearGradient id="aq" x1="134.779" x2="380.76" y1="202.348" y2="358.614" gradientUnits="userSpaceOnUse"><stop stop-color="#fff"/><stop offset=".557" stop-color="#FD8181"/><stop offset="1" stop-color="#FD8181"/></linearGradient><linearGradient id="as" x1="185.452" x2="431.432" y1="197.4" y2="353.666" gradientUnits="userSpaceOnUse"><stop stop-color="#fff"/><stop offset="1" stop-color="#fff"/></linearGradient><linearGradient id="au" x1="301.044" x2="547.025" y1="231.79" y2="388.055" gradientUnits="userSpaceOnUse"><stop stop-color="#fff"/><stop offset="1" stop-color="#fff"/></linearGradient><clipPath id="a"><path fill="#fff" d="M0 0h753v527H0z"/></clipPath></defs></svg>